{"title":"From Dusk Till Dawn The Series S01E03 HDTV x264 AAC [GWC].mp4","uid":9832147,"size":141722263,"categoryP":"video","categoryS":"tv_shows","magnet":"?xt=urn:btih:e017bb21e41b6704d676e4894964bfee0258237e&amp;dn=From+Dusk+Till+Dawn+The+Series+S01E03+HDTV+x264+AAC+%5BGWC%5D.mp4&amp;tr=udp%3A%2F%2Ftracker.openbittorrent.com%3A80&amp;tr=udp%3A%2F%2Fopen.demonii.com%3A1337&amp;tr=udp%3A%2F%2Ftracker.coppersurfer.tk%3A6969&amp;tr=udp%3A%2F%2Fexodus.desync.com%3A6969","seeders":0,"leechers":1,"uploader":"canc232","files":1,"time":1395857576,"description":"From Dusk Till Dawn The Series S01E03 HDTV x264 AAC [GWC] \n\n\nSTORYLINE :\nA Texas Ranger is in hot pursuit of the infamous Gecko brothers.\n\n\nSCREENS : &lt;a href=&quot;\nhttp://i.imgur.com/GGABZqr.jpg&quot; rel=&quot;nofollow&quot; target=&quot;_NEW&quot;&gt;\nhttp://i.imgur.com/GGABZqr.jpg&lt;/a&gt; &lt;a href=&quot;\nhttp://i.imgur.com/0cXbm07.jpg&quot; rel=&quot;nofollow&quot; target=&quot;_NEW&quot;&gt;\nhttp://i.imgur.com/0cXbm07.jpg&lt;/a&gt; &lt;a href=&quot;\nhttp://i.imgur.com/FFUFTUM.jpg&quot; rel=&quot;nofollow&quot; target=&quot;_NEW&quot;&gt;\nhttp://i.imgur.com/FFUFTUM.jpg&lt;/a&gt;\n\n\nMEDIA INFO :\nGeneral \nFormat : MPEG-4 \nFormat profile : Base Media \nFile size : 135 MiB \nDuration : 48mn 44s \nOverall bit rate mode : Variable \nOverall bit rate : 388 Kbps \n\nVideo \nFormat : AVC \nFormat profile : &lt;a class=&quot;__cf_email__&quot; href=&quot;/cdn-cgi/l/email-protection&quot; data-cfemail=&quot;fbb3929c93bbb7c8d5cb&quot;&gt;[email&amp;#160;protected]&lt;/a&gt;&lt;script cf-hash='f9e31' type=&quot;text/javascript&quot;&gt;\n/* &lt;![CDATA[ */!function(){try{var t=&quot;currentScript&quot;in document?document.currentScript:function(){for(var t=document.getElementsByTagName(&quot;script&quot;),e=t.length;e--;)if(t[e].getAttribute(&quot;cf-hash&quot;))return t[e]}();if(t&amp;&amp;t.previousSibling){var e,r,n,i,c=t.previousSibling,a=c.getAttribute(&quot;data-cfemail&quot;);if(a){for(e=&quot;&quot;,r=parseInt(a.substr(0,2),16),n=2;a.length-n;n+=2)i=parseInt(a.substr(n,2),16)^r,e+=String.fromCharCode(i);e=document.createTextNode(e),c.parentNode.replaceChild(e,c)}}}catch(u){}}();/* ]]&gt; */&lt;/script&gt; \nFormat settings, CABAC : Yes \nFormat settings, ReFrames : 4 frames \nDuration : 48mn 43s \nBit rate : 325 Kbps \nMaximum bit rate : 1 786 Kbps \nWidth : 720 pixels \nHeight : 404 pixels \nDisplay aspect ratio : 16:9 \nFrame rate : 23.976 fps \nStream size : 113 MiB (84%) \nTitle : From Dusk Till Dawn The Series S01E03 HDTV x264 AAC [GWC] \nWriting library : x264 core\n\nAudio\nFormat : AAC \nFormat profile : HE-AAC / LC \nDuration : 48mn 44s \nBit rate mode : Variable \nChannel(s) : 2 channels \nSampling rate : 48.0 KHz / 24.0 KHz \nStream size : 20.9 MiB (15%) \nLanguage : English ","torrent":{"xt":"urn:btih:e017bb21e41b6704d676e4894964bfee0258237e","amp;dn":"From+Dusk+Till+Dawn+The+Series+S01E03+HDTV+x264+AAC+%5BGWC%5D.mp4","amp;tr":["udp%3A%2F%2Ftracker.openbittorrent.com%3A80","udp%3A%2F%2Fopen.demonii.com%3A1337","udp%3A%2F%2Ftracker.coppersurfer.tk%3A6969","udp%3A%2F%2Fexodus.desync.com%3A6969"],"infoHash":"e017bb21e41b6704d676e4894964bfee0258237e","infoHashBuffer":{"type":"Buffer","data":[224,23,187,33,228,27,103,4,214,118,228,137,73,100,191,238,2,88,35,126]},"announce":[],"urlList":[]}}